<svg xmlns="http://www.w3.org/2000/svg" viewBox="0 0 181.73 165.18"><defs><style>.cls-1{fill:#de912f;}.cls-14,.cls-2{fill:#fff;}.cls-3{fill:#6e6658;}.cls-4{fill:#8a8c8e;}.cls-5{fill:#373737;}.cls-6{fill:#5e5e60;}.cls-7{fill:#5ea49a;}.cls-8{fill:#bc4829;}.cls-17,.cls-9{fill:#e4a530;}.cls-10{fill:#b0b0b0;}.cls-11{fill:#e4e4e4;}.cls-12{fill:#e6949c;}.cls-12,.cls-13,.cls-14,.cls-15,.cls-16,.cls-17,.cls-18,.cls-19,.cls-20{fill-rule:evenodd;}.cls-13{fill:#d85a67;}.cls-15{fill:#cecece;}.cls-16{fill:#efc469;}.cls-18{fill:#dfae6f;}.cls-19{fill:#b68951;}.cls-20{fill:#232323;}</style></defs><title>Asset 2</title><g id="Layer_2" data-name="Layer 2"><g id="OBJECTS"><rect class="cls-1" x="11.64" y="42.37" width="158.45" height="101.06" transform="translate(-24 32.14) rotate(-17.76)"/><rect class="cls-2" x="20.19" y="54.37" width="71.16" height="99.36" transform="translate(-29.08 21.97) rotate(-17.76)"/><circle class="cls-3" cx="97.47" cy="127.63" r="1.84" transform="translate(-34.28 35.81) rotate(-17.76)"/><path class="cls-4" d="M98.76,126.73a1.87,1.87,0,0,0-.45-.74,1.84,1.84,0,1,1-2.14,2.95,1.84,1.84,0,0,0,2.59-2.21Z"/><circle class="cls-3" cx="95.21" cy="120.57" r="1.84" transform="translate(-32.24 34.79) rotate(-17.76)"/><path class="cls-4" d="M96.5,119.67a1.88,1.88,0,0,0-.45-.74,1.84,1.84,0,1,1-2.14,3,1.85,1.85,0,0,0,2.59-2.21Z"/><circle class="cls-3" cx="92.95" cy="113.52" r="1.84" transform="translate(-30.2 33.76) rotate(-17.76)"/><path class="cls-4" d="M94.24,112.62a1.87,1.87,0,0,0-.45-.74,1.84,1.84,0,1,1-2.14,2.95,1.85,1.85,0,0,0,2.59-2.21Z"/><circle class="cls-3" cx="90.69" cy="106.47" r="1.84" transform="translate(-28.15 32.73) rotate(-17.75)"/><path class="cls-4" d="M92,105.57a1.87,1.87,0,0,0-.45-.74,1.84,1.84,0,1,1-2.14,2.95,1.85,1.85,0,0,0,2.59-2.2Z"/><circle class="cls-3" cx="88.44" cy="99.42" r="1.84" transform="translate(-26.1 31.7) rotate(-17.76)"/><path class="cls-4" d="M89.73,98.52a1.88,1.88,0,0,0-.45-.74,1.84,1.84,0,1,1-2.14,2.95,1.84,1.84,0,0,0,2.59-2.21Z"/><circle class="cls-3" cx="86.18" cy="92.37" r="1.84" transform="translate(-24.06 30.68) rotate(-17.76)"/><path class="cls-4" d="M87.47,91.46a1.87,1.87,0,0,0-.45-.74,1.84,1.84,0,1,1-2.14,2.95,1.84,1.84,0,0,0,2.59-2.21Z"/><circle class="cls-3" cx="83.92" cy="85.31" r="1.84" transform="matrix(0.95, -0.31, 0.31, 0.95, -22.02, 29.67)"/><path class="cls-4" d="M85.21,84.41a1.87,1.87,0,0,0-.45-.74,1.84,1.84,0,1,1-2.14,2.95,1.85,1.85,0,0,0,2.59-2.21Z"/><circle class="cls-3" cx="81.66" cy="78.26" r="1.84" transform="translate(-19.98 28.64) rotate(-17.76)"/><path class="cls-4" d="M83,77.36a1.88,1.88,0,0,0-.45-.74,1.84,1.84,0,1,1-2.14,2.95A1.85,1.85,0,0,0,83,77.36Z"/><circle class="cls-3" cx="79.4" cy="71.21" r="1.84" transform="translate(-17.93 27.6) rotate(-17.75)"/><path class="cls-4" d="M80.69,70.31a1.88,1.88,0,0,0-.45-.74,1.84,1.84,0,1,1-2.14,2.95,1.84,1.84,0,0,0,2.59-2.21Z"/><circle class="cls-3" cx="77.14" cy="64.16" r="1.84" transform="translate(-15.89 26.59) rotate(-17.76)"/><path class="cls-4" d="M78.43,63.25a1.86,1.86,0,0,0-.45-.74,1.84,1.84,0,1,1-2.14,2.95,1.85,1.85,0,0,0,2.59-2.21Z"/><circle class="cls-3" cx="74.89" cy="57.1" r="1.84" transform="translate(-13.85 25.56) rotate(-17.76)"/><path class="cls-4" d="M76.18,56.2a1.86,1.86,0,0,0-.45-.74,1.84,1.84,0,1,1-2.14,2.95,1.84,1.84,0,0,0,2.59-2.21Z"/><path class="cls-5" d="M75.6,56.07l3.25-1a1,1,0,0,1,.6,1.88l-3.25,1a1,1,0,0,1-.6-1.88ZM79,55.52h0l-3.25,1c-.12,0-.19.27-.1.53s.27.41.39.37l3.25-1c.11,0,.18-.27.1-.53S79.12,55.48,79,55.52Z"/><path class="cls-5" d="M77.84,63.08l3.25-1a1,1,0,0,1,.6,1.88l-3.25,1a1,1,0,0,1-.6-1.88Zm3.41-.55h0l-3.25,1c-.12,0-.19.27-.1.53s.27.41.39.37l3.25-1c.11,0,.18-.27.1-.53S81.36,62.49,81.25,62.53Z"/><path class="cls-5" d="M80.08,70.08l3.25-1a1,1,0,0,1,.6,1.88l-3.25,1a1,1,0,0,1-.6-1.88Zm3.41-.55h0l-3.25,1c-.12,0-.19.27-.1.53s.27.41.39.37l3.25-1c.11,0,.18-.27.1-.53S83.6,69.5,83.49,69.53Z"/><path class="cls-5" d="M82.33,77.09l3.25-1a1,1,0,0,1,.6,1.88l-3.25,1a1,1,0,0,1-.6-1.88Zm3.41-.55h0l-3.25,1c-.12,0-.19.27-.1.53s.27.41.39.37l3.25-1c.11,0,.18-.27.1-.53S85.85,76.5,85.73,76.54Z"/><path class="cls-5" d="M84.57,84.09l3.25-1a1,1,0,0,1,.6,1.88l-3.25,1a1,1,0,0,1-.6-1.88ZM88,83.54h0l-3.25,1c-.12,0-.19.27-.1.53s.27.41.39.37l3.25-1c.11,0,.18-.27.1-.53S88.09,83.51,88,83.54Z"/><path class="cls-5" d="M86.81,91.1l3.25-1a1,1,0,0,1,.6,1.88l-3.25,1a1,1,0,0,1-.6-1.88Zm3.41-.55h0l-3.25,1c-.12,0-.19.27-.1.53s.27.41.39.37l3.25-1c.11,0,.18-.27.1-.52S90.33,90.51,90.22,90.55Z"/><path class="cls-5" d="M89.06,98.1l3.25-1a1,1,0,0,1,.6,1.88l-3.25,1a1,1,0,0,1-.6-1.88Zm3.41-.55h0l-3.25,1c-.12,0-.19.27-.1.53s.27.41.39.37l3.25-1c.11,0,.18-.27.1-.53S92.58,97.52,92.46,97.55Z"/><path class="cls-5" d="M91.3,105.11l3.25-1a1,1,0,0,1,.6,1.88l-3.25,1a1,1,0,0,1-.6-1.88Zm3.41-.55h0l-3.25,1c-.12,0-.19.27-.1.53s.27.41.39.37l3.25-1c.11,0,.18-.27.1-.53S94.82,104.52,94.71,104.56Z"/><path class="cls-5" d="M93.54,112.11l3.25-1a1,1,0,0,1,.6,1.88l-3.25,1a1,1,0,0,1-.6-1.88Zm3.41-.55h0l-3.25,1c-.12,0-.19.27-.1.53s.27.41.39.37l3.25-1c.11,0,.18-.27.1-.53S97.06,111.53,97,111.57Z"/><path class="cls-5" d="M95.79,119.12l3.25-1a1,1,0,0,1,.6,1.88l-3.25,1a1,1,0,0,1-.6-1.88Zm3.41-.55h0l-3.25,1c-.12,0-.19.27-.1.53s.27.41.39.37l3.25-1c.11,0,.18-.27.1-.53S99.31,118.53,99.19,118.57Z"/><path class="cls-5" d="M98,126.13l3.25-1a1,1,0,0,1,.6,1.88l-3.25,1a1,1,0,0,1-.6-1.88Zm3.41-.55h0l-3.25,1c-.12,0-.19.27-.1.53s.27.41.39.37l3.25-1c.11,0,.18-.27.1-.53S101.55,125.54,101.44,125.58Z"/><rect class="cls-6" x="16.84" y="71.44" width="58.15" height="0.15" transform="translate(-19.62 17.41) rotate(-17.76)"/><rect class="cls-6" x="17.91" y="74.79" width="58.15" height="0.15" transform="translate(-20.59 17.9) rotate(-17.76)"/><rect class="cls-6" x="18.99" y="78.15" width="58.15" height="0.15" transform="translate(-21.57 18.38) rotate(-17.76)"/><rect class="cls-6" x="20.06" y="81.5" width="58.15" height="0.15" transform="translate(-22.54 18.87) rotate(-17.76)"/><rect class="cls-6" x="21.14" y="84.86" width="58.15" height="0.15" transform="translate(-23.51 19.36) rotate(-17.76)"/><rect class="cls-6" x="22.21" y="88.21" width="58.15" height="0.15" transform="translate(-24.48 19.85) rotate(-17.76)"/><rect class="cls-6" x="23.29" y="91.57" width="58.15" height="0.15" transform="translate(-25.46 20.33) rotate(-17.76)"/><rect class="cls-6" x="24.36" y="94.93" width="58.15" height="0.15" transform="translate(-26.43 20.82) rotate(-17.76)"/><rect class="cls-6" x="25.43" y="98.28" width="58.15" height="0.15" transform="translate(-27.4 21.31) rotate(-17.76)"/><rect class="cls-6" x="26.51" y="101.64" width="58.15" height="0.15" transform="translate(-28.37 21.8) rotate(-17.76)"/><rect class="cls-6" x="27.58" y="104.99" width="58.15" height="0.15" transform="translate(-29.34 22.28) rotate(-17.76)"/><rect class="cls-6" x="28.66" y="108.35" width="58.15" height="0.15" transform="translate(-30.32 22.77) rotate(-17.76)"/><rect class="cls-6" x="29.73" y="111.71" width="58.15" height="0.15" transform="translate(-31.29 23.26) rotate(-17.76)"/><rect class="cls-6" x="30.81" y="115.06" width="58.15" height="0.15" transform="translate(-32.26 23.75) rotate(-17.76)"/><rect class="cls-6" x="31.88" y="118.42" width="58.15" height="0.15" transform="translate(-33.23 24.24) rotate(-17.76)"/><rect class="cls-6" x="32.96" y="121.78" width="58.15" height="0.15" transform="translate(-34.21 24.72) rotate(-17.76)"/><rect class="cls-6" x="34.03" y="125.13" width="58.15" height="0.15" transform="translate(-35.18 25.21) rotate(-17.76)"/><rect class="cls-6" x="35.11" y="128.49" width="58.15" height="0.15" transform="translate(-36.15 25.7) rotate(-17.76)"/><rect class="cls-6" x="36.18" y="131.84" width="58.15" height="0.15" transform="translate(-37.12 26.19) rotate(-17.76)"/><rect class="cls-6" x="37.26" y="135.2" width="58.15" height="0.15" transform="translate(-38.1 26.67) rotate(-17.76)"/><polygon class="cls-6" points="50.37 144.17 95.11 129.84 95.07 129.69 50.32 144.02 50.37 144.17"/><path class="cls-7" d="M149.43,45.91l1.66-.53c2.58-.83,4.1-3.29,3.39-5.5l-4.41-13.77c-.71-2.21-3.38-3.33-6-2.51l-1.66.53Z"/><path class="cls-8" d="M154.4,61.44l1.66-.53c2.58-.83,4.1-3.29,3.39-5.5L155,41.63c-.71-2.21-3.38-3.34-6-2.51l-1.66.53Z"/><path class="cls-9" d="M159.34,76.86l1.66-.53c2.58-.83,4.1-3.29,3.39-5.5L160,57.06c-.71-2.21-3.38-3.33-6-2.51l-1.66.53Z"/><rect class="cls-10" x="89.06" y="32.32" width="71.16" height="99.36" transform="translate(-19.07 41.92) rotate(-17.76)"/><polygon class="cls-2" points="143.38 23.84 75.6 45.54 105.9 140.16 156 124.12 170.01 107 143.38 23.84"/><path class="cls-11" d="M156,124.12s3.21-6.5.09-13.09c0,0,8.6-.12,13.92-4Z"/><circle class="cls-3" cx="104.39" cy="125.41" r="1.84" transform="translate(-33.28 37.81) rotate(-17.76)"/><path class="cls-4" d="M102.82,125.43a1.88,1.88,0,0,1-.06-.87,1.84,1.84,0,1,0,3.46,1.16,1.84,1.84,0,0,1-3.39-.29Z"/><circle class="cls-3" cx="102.14" cy="118.36" r="1.84" transform="translate(-31.23 36.78) rotate(-17.75)"/><path class="cls-4" d="M100.56,118.37a1.88,1.88,0,0,1-.06-.87,1.84,1.84,0,1,0,3.46,1.16,1.84,1.84,0,0,1-3.39-.29Z"/><circle class="cls-3" cx="99.88" cy="111.3" r="1.84" transform="translate(-29.19 35.77) rotate(-17.76)"/><path class="cls-4" d="M98.3,111.32a1.88,1.88,0,0,1-.06-.87,1.84,1.84,0,1,0,3.46,1.16,1.85,1.85,0,0,1-3.39-.29Z"/><circle class="cls-3" cx="97.62" cy="104.25" r="1.84" transform="translate(-27.15 34.74) rotate(-17.76)"/><path class="cls-4" d="M96,104.27a1.88,1.88,0,0,1-.06-.87,1.84,1.84,0,1,0,3.45,1.16,1.85,1.85,0,0,1-3.39-.29Z"/><circle class="cls-3" cx="95.36" cy="97.2" r="1.84" transform="translate(-25.1 33.71) rotate(-17.76)"/><path class="cls-4" d="M93.79,97.22a1.88,1.88,0,0,1-.06-.87,1.84,1.84,0,1,0,3.46,1.16,1.84,1.84,0,0,1-3.39-.29Z"/><circle class="cls-3" cx="93.1" cy="90.15" r="1.84" transform="translate(-23.06 32.69) rotate(-17.76)"/><path class="cls-4" d="M91.53,90.16a1.88,1.88,0,0,1-.06-.87,1.84,1.84,0,1,0,3.45,1.16,1.84,1.84,0,0,1-3.39-.29Z"/><circle class="cls-3" cx="90.84" cy="83.1" r="1.84" transform="translate(-21.01 31.66) rotate(-17.76)"/><path class="cls-4" d="M89.27,83.11a1.87,1.87,0,0,1-.06-.87,1.84,1.84,0,1,0,3.45,1.16,1.85,1.85,0,0,1-3.39-.29Z"/><circle class="cls-3" cx="88.59" cy="76.04" r="1.84" transform="translate(-18.97 30.64) rotate(-17.76)"/><path class="cls-4" d="M87,76.06a1.88,1.88,0,0,1-.06-.87,1.84,1.84,0,1,0,3.46,1.16A1.85,1.85,0,0,1,87,76.06Z"/><circle class="cls-3" cx="86.33" cy="68.99" r="1.84" transform="translate(-16.93 29.61) rotate(-17.76)"/><path class="cls-4" d="M84.75,69a1.88,1.88,0,0,1-.06-.87,1.85,1.85,0,1,0,3.46,1.16A1.84,1.84,0,0,1,84.75,69Z"/><circle class="cls-3" cx="84.07" cy="61.94" r="1.84" transform="translate(-14.89 28.59) rotate(-17.76)"/><path class="cls-4" d="M82.49,62a1.87,1.87,0,0,1-.06-.87,1.84,1.84,0,1,0,3.45,1.16A1.85,1.85,0,0,1,82.49,62Z"/><circle class="cls-3" cx="81.81" cy="54.89" r="1.84" transform="translate(-12.84 27.57) rotate(-17.76)"/><path class="cls-4" d="M80.23,54.9a1.86,1.86,0,0,1-.06-.87,1.84,1.84,0,1,0,3.45,1.16,1.84,1.84,0,0,1-3.39-.29Z"/><path class="cls-5" d="M81.67,55.16a.89.89,0,0,1-.44,1.17l-3.25,1a1,1,0,0,1-.6-1.88l3.25-1a.89.89,0,0,1,1,.7Zm-4.23,1.35h0c.08.26.27.41.39.37l3.25-1c.12,0,.19-.27.1-.53s-.27-.41-.39-.37l-3.25,1C77.43,56,77.36,56.26,77.44,56.51Z"/><path class="cls-5" d="M83.91,62.17a.89.89,0,0,1-.44,1.17l-3.25,1a1,1,0,0,1-.6-1.88l3.25-1a.89.89,0,0,1,1,.7Zm-4.23,1.35h0c.08.26.27.41.39.37l3.25-1c.12,0,.19-.27.1-.53s-.27-.41-.39-.37l-3.25,1C79.67,63,79.6,63.27,79.68,63.52Z"/><path class="cls-5" d="M86.15,69.17a.89.89,0,0,1-.44,1.17l-3.25,1a1,1,0,0,1-.6-1.88l3.25-1a.89.89,0,0,1,1,.7Zm-4.23,1.35h0c.08.26.27.41.39.37l3.25-1c.12,0,.19-.27.1-.53s-.27-.41-.39-.37L82,70C81.91,70,81.84,70.27,81.93,70.53Z"/><path class="cls-5" d="M88.4,76.18A.89.89,0,0,1,88,77.35l-3.25,1a1,1,0,0,1-.6-1.88l3.25-1a.89.89,0,0,1,1,.7Zm-4.23,1.35h0c.08.25.27.41.39.37l3.25-1c.12,0,.19-.27.1-.53s-.27-.41-.39-.37l-3.25,1C84.16,77,84.09,77.28,84.17,77.53Z"/><path class="cls-5" d="M90.64,83.18a.89.89,0,0,1-.44,1.17L87,85.4a1,1,0,0,1-.6-1.88l3.25-1a.89.89,0,0,1,1,.7Zm-4.23,1.35h0c.08.26.27.41.39.37l3.25-1c.12,0,.19-.27.1-.53s-.27-.41-.39-.37l-3.25,1C86.4,84,86.33,84.28,86.41,84.54Z"/><path class="cls-5" d="M92.88,90.19a.89.89,0,0,1-.44,1.17l-3.25,1a1,1,0,0,1-.6-1.88l3.25-1a.89.89,0,0,1,1,.7Zm-4.23,1.35h0c.08.26.27.41.39.37l3.25-1c.12,0,.19-.27.11-.53s-.27-.41-.39-.37l-3.25,1C88.64,91.05,88.57,91.29,88.66,91.54Z"/><path class="cls-5" d="M95.13,97.19a.89.89,0,0,1-.44,1.17l-3.25,1a1,1,0,0,1-.6-1.88l3.25-1a.89.89,0,0,1,1,.7ZM90.9,98.55h0c.08.26.27.41.39.37l3.25-1c.12,0,.19-.27.1-.53s-.27-.41-.39-.37L91,98C90.89,98.06,90.82,98.29,90.9,98.55Z"/><path class="cls-5" d="M97.37,104.2a.89.89,0,0,1-.44,1.17l-3.25,1a1,1,0,0,1-.6-1.88l3.25-1a.89.89,0,0,1,1,.7Zm-4.23,1.35h0c.08.26.27.41.39.37l3.25-1c.12,0,.19-.27.1-.53s-.27-.41-.39-.37l-3.25,1C93.13,105.07,93.06,105.3,93.14,105.55Z"/><path class="cls-5" d="M99.62,111.21a.89.89,0,0,1-.44,1.17l-3.25,1a1,1,0,0,1-.6-1.88l3.25-1a.89.89,0,0,1,1,.7Zm-4.23,1.35h0c.08.26.27.41.39.37l3.25-1c.12,0,.19-.27.1-.53s-.27-.41-.39-.37l-3.25,1C95.37,112.07,95.3,112.3,95.39,112.56Z"/><path class="cls-5" d="M101.86,118.21a.89.89,0,0,1-.44,1.17l-3.25,1a1,1,0,0,1-.6-1.88l3.25-1a.89.89,0,0,1,1,.7Zm-4.23,1.35h0c.08.26.27.41.39.37l3.25-1c.12,0,.19-.27.1-.53s-.27-.41-.39-.37l-3.25,1C97.62,119.08,97.55,119.31,97.63,119.57Z"/><path class="cls-5" d="M104.1,125.22a.89.89,0,0,1-.44,1.17l-3.25,1a1,1,0,0,1-.6-1.88l3.25-1a.89.89,0,0,1,1,.7Zm-4.23,1.35h0c.08.26.27.41.39.37l3.25-1c.12,0,.19-.27.1-.53s-.27-.4-.39-.37L100,126C99.86,126.08,99.79,126.31,99.87,126.57Z"/><rect class="cls-6" x="84.69" y="49.71" width="58.15" height="0.15" transform="translate(-9.76 37.07) rotate(-17.76)"/><rect class="cls-6" x="85.77" y="53.06" width="58.15" height="0.15" transform="translate(-10.74 37.56) rotate(-17.76)"/><polygon class="cls-6" points="143.63 47.7 88.25 65.43 88.2 65.29 143.58 47.55 143.63 47.7"/><rect class="cls-6" x="87.92" y="59.78" width="58.15" height="0.15" transform="translate(-12.68 38.53) rotate(-17.76)"/><polygon class="cls-6" points="145.77 54.41 90.4 72.15 90.35 72 145.73 54.27 145.77 54.41"/><rect class="cls-6" x="90.06" y="66.49" width="58.15" height="0.15" transform="translate(-14.62 39.51) rotate(-17.76)"/><polygon class="cls-6" points="147.92 61.12 92.55 78.86 92.5 78.71 147.88 60.98 147.92 61.12"/><rect class="cls-6" x="92.21" y="73.2" width="58.15" height="0.15" transform="translate(-16.57 40.48) rotate(-17.76)"/><polygon class="cls-6" points="150.07 67.83 94.7 85.57 94.65 85.42 150.03 67.69 150.07 67.83"/><rect class="cls-6" x="94.36" y="79.91" width="58.15" height="0.15" transform="translate(-18.51 41.46) rotate(-17.76)"/><rect class="cls-6" x="95.44" y="83.27" width="58.15" height="0.15" transform="translate(-19.49 41.94) rotate(-17.76)"/><rect class="cls-6" x="96.51" y="86.62" width="58.15" height="0.15" transform="translate(-20.46 42.43) rotate(-17.76)"/><rect class="cls-6" x="97.59" y="89.98" width="58.15" height="0.15" transform="translate(-21.43 42.92) rotate(-17.76)"/><rect class="cls-6" x="98.66" y="93.33" width="58.15" height="0.15" transform="translate(-22.4 43.41) rotate(-17.76)"/><rect class="cls-6" x="99.74" y="96.69" width="58.15" height="0.15" transform="translate(-23.37 43.89) rotate(-17.76)"/><rect class="cls-6" x="100.81" y="100.05" width="58.15" height="0.15" transform="translate(-24.35 44.38) rotate(-17.76)"/><rect class="cls-6" x="101.89" y="103.4" width="58.15" height="0.15" transform="translate(-25.32 44.87) rotate(-17.76)"/><polygon class="cls-6" points="159.75 98.04 104.37 115.77 104.32 115.63 159.7 97.89 159.75 98.04"/><rect class="cls-6" x="104.04" y="110.11" width="58.15" height="0.15" transform="translate(-27.26 45.85) rotate(-17.76)"/><rect class="cls-6" x="105.11" y="113.47" width="58.15" height="0.15" transform="translate(-28.24 46.33) rotate(-17.76)"/><polygon class="cls-6" points="152.34 111.51 107.59 125.84 107.55 125.69 152.3 111.36 152.34 111.51"/><path class="cls-12" d="M132.82,60.47l2.32,9.75-8.77-4.86L81.15,5.76a2.21,2.21,0,0,1,.42-3.09L84.5.45a2.21,2.21,0,0,1,3.09.42Z"/><path class="cls-13" d="M132.82,60.47l2.32,9.75-5.76-7.6L83,1.56,84.5.45a2.21,2.21,0,0,1,3.09.42Z"/><path class="cls-14" d="M132.82,60.47l2.32,9.75-8.77-4.86-43.26-57a23.21,23.21,0,0,1,6.44-4.89Z"/><path class="cls-15" d="M132.82,60.47l2.32,9.75-5.76-7.6-43.25-57a22.46,22.46,0,0,1,3.44-2.16Z"/><path class="cls-16" d="M132.82,60.47l2.32,9.75-8.77-4.86-41.7-55a21.71,21.71,0,0,1,6.44-4.89Z"/><path class="cls-17" d="M132.82,60.47l2.32,9.75-5.76-7.6-41.71-55a20.72,20.72,0,0,1,3.45-2.14Z"/><path class="cls-18" d="M132.82,60.47l2.32,9.75-8.77-4.86a22.52,22.52,0,0,1,6.44-4.89Z"/><path class="cls-19" d="M132.82,60.47l2.32,9.75-5.76-7.6A22.16,22.16,0,0,1,132.82,60.47Z"/><path class="cls-20" d="M134.37,67l.77,3.22-2.9-1.61A7.43,7.43,0,0,1,134.37,67Z"/></g></g></svg>