<svg xmlns="http://www.w3.org/2000/svg" viewBox="0 0 178.93 190.05"><defs><style>.cls-1{fill:#e5e3e3;}.cls-2{fill:#939292;}.cls-3{fill:#ce4339;}.cls-4{fill:#f1d6d4;}.cls-13,.cls-14,.cls-4,.cls-5,.cls-6,.cls-7{fill-rule:evenodd;}.cls-5{fill:#e6b1ad;}.cls-6{fill:#db8a83;}.cls-7{fill:#d4675e;}.cls-8{fill:#537f70;}.cls-9{fill:#5d887b;}.cls-10{fill:#6b9789;}.cls-11{fill:#82ada1;}.cls-12{fill:#9dc5b9;}.cls-13{fill:#e4a530;}.cls-14,.cls-15{fill:#ecc677;}</style></defs><title>Asset 5</title><g id="Layer_2" data-name="Layer 2"><g id="OBJECTS"><rect class="cls-1" x="11.87" y="40.16" width="155.18" height="109.72" transform="translate(-39.7 113.72) rotate(-54.96)"/><rect class="cls-2" x="122.32" y="19.59" width="2.73" height="53.27" transform="translate(14.83 120.95) rotate(-54.96)"/><rect class="cls-2" x="118.4" y="7.02" width="2.73" height="89.58" transform="matrix(0.57, -0.82, 0.82, 0.57, 8.58, 120.12)"/><rect class="cls-2" x="115.65" y="10.94" width="2.73" height="89.58" transform="matrix(0.57, -0.82, 0.82, 0.57, 4.21, 119.54)"/><rect class="cls-2" x="112.91" y="14.85" width="2.73" height="89.58" transform="matrix(0.57, -0.82, 0.82, 0.57, -0.17, 118.96)"/><rect class="cls-2" x="110.16" y="18.77" width="2.73" height="89.58" transform="translate(-4.54 118.38) rotate(-54.96)"/><rect class="cls-2" x="107.42" y="22.68" width="2.73" height="89.58" transform="matrix(0.57, -0.82, 0.82, 0.57, -8.92, 117.8)"/><rect class="cls-2" x="104.67" y="26.59" width="2.73" height="89.58" transform="translate(-13.29 117.22) rotate(-54.96)"/><rect class="cls-2" x="101.93" y="30.51" width="2.73" height="89.58" transform="translate(-17.66 116.64) rotate(-54.96)"/><rect class="cls-2" x="99.18" y="34.42" width="2.73" height="89.58" transform="translate(-22.04 116.06) rotate(-54.96)"/><rect class="cls-2" x="78.1" y="47.87" width="2.73" height="44.79" transform="translate(-23.69 94.99) rotate(-54.96)"/><circle class="cls-3" cx="110.57" cy="122.7" r="11.62" transform="translate(-53.37 142.79) rotate(-54.96)"/><path class="cls-4" d="M99.77,127a11.68,11.68,0,0,1-.7-5.88l11.51,1.61Z"/><path class="cls-5" d="M99.07,121.09a11.63,11.63,0,0,1,10.9-10l.61,11.6Z"/><path class="cls-6" d="M110,111.1a11.57,11.57,0,0,1,7.28,2.09l-6.67,9.51Z"/><path class="cls-7" d="M117.24,113.19l-6.67,9.51L122,120.78A11.58,11.58,0,0,0,117.24,113.19Z"/><rect class="cls-2" x="59.68" y="78.28" width="1.36" height="53.3" transform="translate(-60.2 94.11) rotate(-54.96)"/><rect class="cls-8" x="36.74" y="75.36" width="28.55" height="9.48" transform="translate(-43.86 75.88) rotate(-54.96)"/><rect class="cls-9" x="48" y="86.06" width="17.78" height="9.48" transform="translate(-50.11 85.25) rotate(-54.96)"/><rect class="cls-10" x="58.25" y="94.82" width="11.76" height="9.48" transform="translate(-54.2 94.91) rotate(-54.96)"/><rect class="cls-11" x="66.05" y="98.85" width="17.27" height="9.48" transform="translate(-53.01 105.27) rotate(-54.96)"/><rect class="cls-12" x="76.07" y="107.15" width="12.35" height="9.48" transform="translate(-56.59 114.99) rotate(-54.96)"/><rect class="cls-2" x="94.75" y="127.12" width="1.36" height="4.78" transform="translate(-65.4 133.29) rotate(-54.96)"/><rect class="cls-2" x="104.34" y="129.13" width="1.36" height="14.21" transform="translate(-66.82 144.01) rotate(-54.96)"/><rect class="cls-2" x="50.36" y="86.08" width="2.73" height="41.11" transform="translate(-65.29 87.76) rotate(-54.96)"/><rect class="cls-2" x="47.61" y="90" width="2.73" height="41.11" transform="translate(-69.66 87.18) rotate(-54.96)"/><rect class="cls-2" x="44.87" y="93.91" width="2.73" height="41.11" transform="translate(-74.03 86.6) rotate(-54.96)"/><rect class="cls-2" x="42.12" y="97.83" width="2.73" height="41.11" transform="translate(-78.41 86.02) rotate(-54.96)"/><rect class="cls-2" x="39.38" y="101.74" width="2.73" height="41.11" transform="translate(-82.78 85.44) rotate(-54.96)"/><rect class="cls-2" x="36.63" y="105.65" width="2.73" height="41.11" transform="translate(-87.15 84.86) rotate(-54.96)"/><rect class="cls-2" x="33.89" y="109.57" width="2.73" height="41.11" transform="translate(-91.53 84.28) rotate(-54.96)"/><rect class="cls-2" x="22.73" y="117.86" width="2.73" height="20.56" transform="translate(-94.65 74.3) rotate(-54.96)"/><rect class="cls-2" x="90.04" y="113.91" width="2.73" height="41.11" transform="translate(-71.17 132.11) rotate(-54.96)"/><rect class="cls-2" x="87.3" y="117.82" width="2.73" height="41.11" transform="translate(-75.54 131.53) rotate(-54.96)"/><rect class="cls-2" x="84.55" y="121.74" width="2.73" height="41.11" transform="translate(-79.92 130.95) rotate(-54.96)"/><rect class="cls-2" x="81.81" y="125.65" width="2.73" height="41.11" transform="translate(-84.29 130.37) rotate(-54.96)"/><rect class="cls-2" x="79.06" y="129.57" width="2.73" height="41.11" transform="translate(-88.66 129.79) rotate(-54.96)"/><rect class="cls-2" x="76.32" y="133.48" width="2.73" height="41.11" transform="translate(-93.04 129.21) rotate(-54.96)"/><rect class="cls-2" x="73.57" y="137.39" width="2.73" height="41.11" transform="translate(-97.41 128.63) rotate(-54.96)"/><rect class="cls-2" x="65.85" y="143.9" width="2.73" height="28.94" transform="translate(-101.05 122.48) rotate(-54.96)"/><polygon class="cls-13" points="59.46 54.68 99.65 58.25 97.27 85.08 87.48 97.68 55.89 94.87 59.46 54.68"/><path class="cls-14" d="M97.26,85.07c-3.91,1.52-7.71,2-11.3.79,2.09,3.63,2.34,7.62,1.52,11.81Z"/><rect class="cls-15" x="77.21" y="38.43" width="4.3" height="40.35" transform="translate(13.96 132.47) rotate(-84.92)"/></g></g></svg>