<svg id="Layer_1" data-name="Layer 1" xmlns="http://www.w3.org/2000/svg" viewBox="0 0 566.92 354.88"><defs><style>.cls-1{fill:#ff9012;}.cls-2{fill:#fff;}</style></defs><title>Artboard 1</title><g id="Layer_2" data-name="Layer 2"><g id="Layer_1-2" data-name="Layer 1-2"><path class="cls-1" d="M11.23-.12h95.44S128,116.63,141.88,130.53c0,0,146.4-87.1,213.12-92.66v97.29s-129.73,23.16-189,56.52c0,0,79.68,145.47,105.63,163.08,0,0-87.1-29.65-162.15-133.42,0,0-82.46,50-109.33,76.91,0,0,29.65-73.21,84.32-118.61C84.43,179.63,32.54,97.17,11.23-.12Z"/><path class="cls-2" d="M219.83,249.37a16.3,16.3,0,0,1-6.42,1.88q-6,0-6-5.28,0-2.7,2.11-13.44l2.93-14.61q2.7-13,2.7-19.31a8.53,8.53,0,0,0-1.94-5.7,32.6,32.6,0,0,1,10-2.11q4.11,0,4.11,5.22,0,3.23-2.92,17l-3.32,17.08q11.09-21.55,22.31-33.49t20.38-11.94a8.74,8.74,0,0,1,5.56,1.85,5.55,5.55,0,0,1,2.35,4.49q0,4.11-8.92,10.92-2.23-4.64-6.33-4.64-7.44,0-19,15.84A147.89,147.89,0,0,0,225,233.47q-5.28,10.48-5.28,14.93Z"/><path class="cls-2" d="M282.4,225.35q0,17.16,14.56,17.16,12.62,0,27.82-12t27.4-31.62l5,2.75a108.79,108.79,0,0,1-29.9,35.55q-18.41,14.08-34.9,14.08-10.56,0-16.7-6.81t-6.13-18.61a41.45,41.45,0,0,1,11.13-29.11q11.12-12.09,26.79-12.09,7.57,0,12.12,3.81a12.66,12.66,0,0,1,4.55,10.21q0,10.51-12.65,18.6T282.4,225.35Zm.47-5.47a38.32,38.32,0,0,0,21-7q8.78-6.38,8.77-14.75,0-7.5-6.69-7.49-8,0-14.74,8.55a41.72,41.72,0,0,0-8.33,20.69Z"/><path class="cls-2" d="M360.41,229.15q21.14-44.52,37.33-44.52,7.1,0,7.1,10.25,0,4.39-3,19.8l-3.52,17.75q10.28-21.59,21.43-34.7t19.3-13.1q8.92,0,8.92,10.44,0,3.75-2.64,17.18l-1.82,9.14a69.8,69.8,0,0,0-1.64,12.25q0,7,5,7,11.26,0,34.62-41.8l4.94,2.75Q460.9,251.2,441.89,251.2q-12.16,0-12.15-15.85,0-5.29,2.34-17l1.64-8.1A75.44,75.44,0,0,0,435.37,200a2.26,2.26,0,0,0-2.58-2.52q-6.33,0-22.72,25.18-14.9,23-14.9,26.3a5.69,5.69,0,0,0,.23,1.23c-.55.12-1.5.37-2.88.77a8.86,8.86,0,0,1-2.64.3q-5.46,0-5.46-5.22a72.33,72.33,0,0,1,1.77-9.56q.64-2.87,1.29-6.16L390,217.93q2.69-13.43,2.7-16.12c0-2.62-1-3.93-2.88-3.93q-6.34,0-18.66,22.69-12.27,22.52-12.27,26.85a3.83,3.83,0,0,0,.94,2.41,14.9,14.9,0,0,1-5.93,1.41q-6.1,0-6.1-6.57,0-.82,1.75-17.08l1.36-12.5a115.84,115.84,0,0,0,.7-12.15q0-7-2.88-10.33,6.81-2.47,9.63-2.47,5.17,0,5.17,6.1,0,2.17-1.41,16.13Z"/><path class="cls-2" d="M533,206.52a19.84,19.84,0,0,1,.18,2.52,42.5,42.5,0,0,1-11.5,29.58q-11.5,12.61-26.94,12.62-11.79,0-19.23-7.54t-7.42-19.57a33.17,33.17,0,0,1,9.6-23.72q9.59-10,22.62-10a18.53,18.53,0,0,1,4.23.53,9.68,9.68,0,0,1-1.47-4.46A8.87,8.87,0,0,1,505,181q14.32,1.17,23.83,14.68a35.62,35.62,0,0,0,20.31,6.63q6.87,0,14.86-4.64l2.93,5q-9.33,6.51-19.14,6.52A48.4,48.4,0,0,1,533,206.52Zm-13.32-5a27.13,27.13,0,0,1-9-4.7,25.4,25.4,0,0,0-5-.65q-10,0-17.69,9a30.61,30.61,0,0,0-7.73,20.48q0,8.33,4.67,13.7a15.21,15.21,0,0,0,12,5.38q9.91,0,17.07-10t7.16-23.85a29.12,29.12,0,0,0-1.5-9.34Z"/></g></g></svg>